<svg width="115" height="106" viewBox="0 0 115 106" fill="none" xmlns="http://www.w3.org/2000/svg">
<g clip-path="url(#clip0_125_251)">
<path d="M5.04789 58.098C-3.00042 52.2894 -0.894494 6.55436 7.61608 2.32364C16.1267 -1.90708 52.7911 24.5546 52.3289 34.594C51.8666 44.6334 13.0962 63.9067 5.04789 58.098Z" fill="#555B6E"/>
<path d="M107.823 56.2285C115.871 50.4199 113.765 4.68489 105.255 0.454167C96.7442 -3.77655 60.0797 22.6852 60.542 32.7245C61.0042 42.7639 99.7746 62.0372 107.823 56.2285Z" fill="#EE4266"/>
<path d="M57.6841 104.134C88.1629 104.134 112.871 81.865 112.871 54.395C112.871 26.925 88.1629 4.65616 57.6841 4.65616C27.2053 4.65616 2.49734 26.925 2.49734 54.395C2.49734 81.865 27.2053 104.134 57.6841 104.134Z" fill="#F6FFF8" stroke="#555B6E" stroke-width="2.87152"/>
<path d="M55.2749 54.3912C55.8585 53.6812 65.4656 53.6163 66.0694 54.3182C66.6733 55.0202 61.9515 60.7646 60.7641 60.7726C59.5767 60.7806 54.6913 55.1012 55.2749 54.3912L55.2749 54.3912Z" fill="#555B6E"/>
<path d="M36.5559 47.8637C37.9611 47.8637 39.1002 45.5711 39.1002 42.7432C39.1002 39.9152 37.9611 37.6227 36.5559 37.6227C35.1507 37.6227 34.0116 39.9152 34.0116 42.7432C34.0116 45.5711 35.1507 47.8637 36.5559 47.8637Z" fill="#555B6E"/>
<path d="M81.7296 47.8637C83.1347 47.8637 84.2739 45.5711 84.2739 42.7432C84.2739 39.9152 83.1347 37.6227 81.7296 37.6227C80.3244 37.6227 79.1852 39.9152 79.1852 42.7432C79.1852 45.5711 80.3244 47.8637 81.7296 47.8637Z" fill="#555B6E"/>
<path d="M60.6746 60.2976V64.647V60.2976Z" fill="#555B6E"/>
<path d="M60.6746 60.2976V64.647" stroke="#555B6E" stroke-width="0.570177"/>
</g>
<defs>
<clipPath id="clip0_125_251">
<rect width="114.307" height="105.57" fill="white"/>
</clipPath>
</defs>
</svg>
